<?xml version="1.0" encoding="UTF-8"?>
<svg xmlns="http://www.w3.org/2000/svg" xmlns:xlink="http://www.w3.org/1999/xlink" viewBox="0 0 1920 1080">
  <defs>
    <style>
      .cls-1 {
        fill: none;
      }

      .cls-2 {
        fill: #2a92c6;
      }

      .cls-3 {
        fill: #d93c0f;
      }

      .cls-4, .cls-5 {
        fill: #c699ba;
      }

      .cls-5, .cls-6, .cls-7, .cls-8 {
        mix-blend-mode: multiply;
      }

      .cls-5, .cls-8 {
        opacity: .3;
      }

      .cls-9, .cls-7, .cls-10 {
        fill: #077738;
      }

      .cls-11 {
        isolation: isolate;
      }

      .cls-12 {
        fill: #fcf4e3;
      }

      .cls-13 {
        clip-path: url(#clippath-1);
      }

      .cls-14 {
        fill: #b4e1a0;
      }

      .cls-14, .cls-10 {
        mix-blend-mode: screen;
        opacity: .2;
      }

      .cls-15 {
        fill: #f3fff3;
      }

      .cls-16, .cls-6 {
        fill: #96db79;
      }

      .cls-6, .cls-7 {
        opacity: .16;
      }

      .cls-17 {
        opacity: .4;
      }

      .cls-18 {
        fill: #ea9d00;
      }

      .cls-19 {
        fill: #2b2a28;
      }

      .cls-20 {
        fill: #ffe2a7;
        opacity: .57;
      }

      .cls-8 {
        fill: #00241d;
      }

      .cls-21 {
        clip-path: url(#clippath);
      }

      .cls-22 {
        fill: #077bbe;
      }
    </style>
    <clipPath id="clippath">
      <rect class="cls-1" x="563.55" y="-3908.54" width="1374.32" height="2858.58" transform="translate(3729.96 -1228.54) rotate(-90)"/>
    </clipPath>
    <clipPath id="clippath-1">
      <rect class="cls-1" x=".5" y=".5" width="1919" height="1079"/>
    </clipPath>
  </defs>
  <g class="cls-11">
    <g id="Layer_1" data-name="Layer 1">
      <g class="cls-21">
        <path class="cls-20" d="M-486.61-328.63c-215.86-166.21-299.35-240.33-359.48-357.06-55.39-110.73-87.41-264.09-90.99-449.99-2-183.53,24.38-399.68,121.75-581.94,95.78-183.56,262.55-333.22,504.59-413.71,239.61-83.3,468.54-161.15,662.49-231.3,196.08-68.24,357.17-128.76,510.38-132.99,152.2-5.95,296.45,44.31,434.91,157.52,130.75,104.99,256.01,269.67,284.5,380.45,1.86,7.23,4.15,14.37,6.51,21.46,45.18,135.8-6.67,207.11-39.06,320.79-38.62,111.65-56.57,268.3-52.73,453.96,1.74,183.78,25.33,396.63,21.97,577.97-2.06,165.96-26.26,306.04-89.56,407.2-9.69,15.48-20.97,29.89-32.62,43.96-158.36,191.31-239.5,455.29-536.59,470.34-151.4,6.33-363.57-61.38-619.61-200.9C-10.41,3.73-304.56-201.47-486.61-328.63Z"/>
      </g>
      <g class="cls-13">
        <rect class="cls-19" x="419.45" y="-419.39" width="1081.16" height="1919.93" transform="translate(419.45 1500.61) rotate(-90)"/>
        <path class="cls-2" d="M286.06,663c16.17,10.11-22.31,59.35-28.77,69.77,8.13,14.56,20.92,26.79,26.97,42.61,21.02,54.91-52.98,13.87-69.37-3.21-11.67,6.56-63.88,42.29-74.95,26.54-11.82-16.82,23.34-53.15,30.59-67.7-58.12-72.4-25.92-94.54,42.47-39.37,14.7-8.09,56.74-38.83,73.05-28.63Z"/>
        <g>
          <path class="cls-9" d="M298,870.5v230.35c36.46,1.45,72.92,2.78,109.38,4.01,74.25,2.48,148.53,4.52,222.82,6.23,200.8,4.6,401.74,6.79,602.63,8.98,56.66.61,113.33,1.22,170.01,1.61,109.38.8,218.76.76,328.09-1.65,22.12-.5,44.52-1.39,67.03-2.76,45.06-2.71,90.53-7.25,135-14.04l209.6-40.24c-50.43-21.64-310.43-210.86-360.86-232.5-52.02-22.33-104.5-44.82-160.51-59.46-7.08-1.87-14.2-3.6-21.39-5.17-30.97-6.82-63.44-10.85-95.6-10.85-34.47,0-68.6,4.64-100.25,15.39-55.94,19.05-101.35,55.97-153.55,79.52-12.54,5.67-25.48,10.57-39.08,14.26-7.61,2.08-15.44,3.78-23.52,5.01-31.09,4.75-63.11,2.13-94.71,3.49-30.81,1.32-60.68,6.34-89.83,13.8-57.85,14.76-112.84,39.02-166.35,62.63-9.04,3.97-18.64,8.03-28.73,8.83-.65.06-1.31.09-1.96.11-.37.02-.72.04-1.1.02-1.1.04-2.2.02-3.29-.07-10.44-.74-19.62-5.51-28.29-10.18-75.68-40.87-147.5-86.25-214.67-135.62-10.21-7.51-20.76-15.32-32.09-21.94-14.01-8.23-29.17-14.67-46.32-16.6-3.97-.45-7.89-.65-11.8-.59-3.29.02-6.56.22-9.81.57-1.68.17-3.34.39-5,.65-30.92,4.71-59.12,22.55-83.22,40.06-24.92,18.14-49.17,36.87-72.66,56.17Z"/>
          <path class="cls-7" d="M1701.84,868.87c-.89,40.91-44.94,75.53-44.68,116.44.23,36.33,35.01,66.21,69.93,89.65,22.56,15.15,46.22,29.34,70.89,42.3,45.06-2.71,90.53-7.25,135-14.04l209.6-40.24c-50.43-21.64-310.43-210.86-360.86-232.5-52.02-22.33-104.5-44.82-160.51-59.46,17.98,10.89,35.43,22.37,49.84,36.14,18.17,17.4,31.27,39.09,30.78,61.7Z"/>
          <path class="cls-7" d="M776.07,1091.63c1.85,1.91,5.44,1.82,8.46,1.5,39.52-4.21,76.73-17.28,111.74-32.47,102.26-44.36,189.63-107,280.4-165.05,24.29-15.52,48.89-30.77,73.76-45.69-19.6,8.86-40.17,15.84-62.6,19.27-31.09,4.75-63.11,2.13-94.71,3.49-30.81,1.32-60.68,6.34-89.83,13.8-23.5,9.59-45.8,20.68-66.12,34.31-12.87,8.64-25.72,20.33-23.45,33.59.93,5.54,4.53,10.66,5.07,16.25,1.03,10.68-9.48,20.2-21.53,25.04-12.05,4.86-25.74,6.34-38.63,9.53-44.68,11.03-79.06,44.62-83.55,81.58-.19,1.69-.28,3.54,1,4.88Z"/>
          <path class="cls-10" d="M1211.35,864.17c53.86-3.93,104.48-22.75,153.55-41.23,46.08-17.36,96.16-35.01,133.88-63.02,2.24-1.67,4.04-3.32,5.44-4.93-34.47,0-68.6,4.64-100.25,15.39-55.94,19.05-101.35,55.97-153.55,79.52-12.54,5.67-25.48,10.57-39.08,14.26Z"/>
          <path class="cls-7" d="M298,870.5v112.66s.02-.02.02-.04c6.61-11.26,13.92-24.03,28.68-28.13,16.49-4.58,35.08,3.93,51.92.17,13.2-2.93,22.12-12.78,27.3-22.85,11.09-21.49,10.44-47.01,28.07-65.56,7.05-7.42,16.51-13.09,25.02-19.47,15.44-11.57,27.7-25.43,41.44-38.22,4.76-4.43,16.98-11.59,26.35-18.82-14.01-8.23-29.17-14.67-46.32-16.6-3.97-.45-7.89-.65-11.8-.59-3.29.02-6.56.22-9.81.57-1.68.17-3.34.39-5,.65-30.92,4.71-59.12,22.55-83.22,40.06-24.92,18.14-49.17,36.87-72.66,56.17Z"/>
          <path class="cls-10" d="M453.88,774.27c39.57,34.4,79.11,68.82,118.68,103.24,20.3,17.65,41.36,35.75,68.65,45.88,14.67,5.43,32.05,9.22,40.29,20.29,8.88,11.87,4.3,28.99,16.77,38.61,12.01,9.25,31.79,5.62,47.34.7,15.49-4.91,45.5-12.17,59.54-24.94-1.1.04-2.2.02-3.29-.07-10.44-.74-19.62-5.51-28.29-10.18-75.68-40.87-147.5-86.25-214.67-135.62-22.91-16.86-47.46-35.05-78.41-38.54-3.97-.45-7.89-.65-11.8-.59-3.29.02-6.56.22-9.81.57-1.68.17-3.34.39-5,.65Z"/>
        </g>
        <path class="cls-22" d="M59,860.54v146.67c27.79.92,55.58,1.77,83.37,2.55,56.6,1.58,113.21,2.88,169.84,3.97,153.06,2.93,306.22,4.32,459.34,5.72,43.19.39,86.38.78,129.59,1.03,83.37.51,166.75.48,250.08-1.05,16.86-.32,33.93-.89,51.1-1.76,34.34-1.72,69.01-4.62,102.9-8.94l159.77-25.62c-38.44-13.78-236.62-134.26-275.06-148.04-39.65-14.22-79.65-28.54-122.34-37.86-5.39-1.19-10.82-2.29-16.31-3.29-23.61-4.35-48.35-6.91-72.87-6.91-26.28,0-52.29,2.95-76.41,9.8-42.64,12.13-77.25,35.64-117.04,50.63-9.56,3.61-19.42,6.73-29.78,9.08-5.8,1.32-11.77,2.41-17.93,3.19-23.7,3.02-48.1,1.36-72.19,2.22-23.48.84-46.25,4.04-68.47,8.79-44.1,9.4-86.01,24.84-126.8,39.88-6.89,2.53-14.21,5.11-21.9,5.62-.5.04-1,.06-1.5.07-.28.01-.55.02-.84.01-.84.02-1.67.01-2.51-.05-7.96-.47-14.95-3.51-21.56-6.48-57.68-26.03-112.43-54.92-163.63-86.35-7.78-4.78-15.83-9.75-24.46-13.97-10.68-5.24-22.24-9.34-35.3-10.57-3.03-.28-6.02-.41-8.99-.38-2.51.01-5,.14-7.48.37-1.28.11-2.55.25-3.81.41-23.57,3-45.06,14.36-63.43,25.51-19,11.55-37.48,23.47-55.39,35.77Z"/>
        <path class="cls-14" d="M1129.05,859.5c-.68,26.05-34.25,48.09-34.06,74.14.18,23.13,26.69,42.16,53.3,57.08,17.2,9.65,35.23,18.68,54.03,26.93,34.34-1.72,69.01-4.62,102.9-8.94l159.77-25.62c-38.44-13.78-236.62-134.26-275.06-148.04-39.65-14.22-79.65-28.54-122.34-37.86,13.71,6.93,27.01,14.24,37.99,23.01,13.85,11.08,23.84,24.89,23.46,39.29Z"/>
        <path class="cls-6" d="M423.4,1001.34c1.41,1.22,4.15,1.16,6.44.96,30.12-2.68,58.48-11.01,85.17-20.68,77.94-28.25,144.55-68.13,213.73-105.09,18.52-9.88,37.26-19.59,56.22-29.1-14.94,5.64-30.62,10.08-47.71,12.27-23.7,3.02-48.1,1.36-72.19,2.22-23.48.84-46.25,4.04-68.47,8.79-17.91,6.1-34.91,13.17-50.4,21.85-9.81,5.5-19.6,12.94-17.87,21.38.71,3.53,3.45,6.79,3.86,10.34.78,6.8-7.23,12.86-16.41,15.94-9.19,3.09-19.62,4.04-29.45,6.07-34.06,7.03-60.26,28.41-63.68,51.94-.14,1.07-.21,2.26.77,3.11Z"/>
        <path class="cls-14" d="M755.18,856.52c41.05-2.5,79.63-14.49,117.04-26.25,35.13-11.05,73.3-22.29,102.05-40.12,1.71-1.06,3.08-2.11,4.15-3.14-26.28,0-52.29,2.95-76.41,9.8-42.64,12.13-77.25,35.64-117.04,50.63-9.56,3.61-19.42,6.73-29.78,9.08Z"/>
        <g>
          <g>
            <path class="cls-15" d="M1055.35,826.37c0,.6.73,1.08,1.63,1.08s1.63-.48,1.63-1.08-.73-1.08-1.63-1.08-1.63.48-1.63,1.08Z"/>
            <ellipse class="cls-15" cx="1051.81" cy="811.09" rx="1.2" ry=".79"/>
            <path class="cls-15" d="M1070.51,807.41c0,.57.71,1.04,1.57,1.04s1.57-.47,1.57-1.04-.7-1.04-1.57-1.04-1.57.46-1.57,1.04Z"/>
            <ellipse class="cls-15" cx="1073.66" cy="817.39" rx="3.15" ry="2.08"/>
          </g>
          <g>
            <path class="cls-15" d="M837.46,929.67c0,.49.6.88,1.34.88s1.34-.4,1.34-.88-.6-.88-1.34-.88-1.34.4-1.34.88Z"/>
            <path class="cls-15" d="M833.58,917.14c0,.36.44.65.99.65s.99-.29.99-.65-.44-.65-.99-.65-.99.29-.99.65Z"/>
            <path class="cls-15" d="M849.89,914.12c0,.47.58.85,1.29.85s1.29-.38,1.29-.85-.58-.85-1.29-.85-1.29.38-1.29.85Z"/>
            <ellipse class="cls-15" cx="852.47" cy="922.3" rx="2.58" ry="1.7"/>
          </g>
          <g>
            <path class="cls-15" d="M1056.39,981.94c.63.26,1.45.13,1.85-.28.39-.41.2-.96-.42-1.22-.63-.26-1.45-.13-1.85.28-.39.41-.2.96.42,1.22Z"/>
            <path class="cls-15" d="M1038.22,977.46c.46.19,1.07.1,1.36-.21.29-.3.15-.71-.31-.9-.46-.19-1.07-.1-1.36.21-.29.3-.15.71.31.9Z"/>
            <path class="cls-15" d="M1043.01,966.74c.6.25,1.4.13,1.78-.27.38-.4.19-.92-.41-1.17-.6-.25-1.4-.13-1.78.27-.38.4-.2.92.41,1.17Z"/>
            <path class="cls-15" d="M1053.52,971.09c1.21.5,2.8.26,3.56-.54.76-.8.39-1.85-.82-2.35-1.21-.5-2.8-.26-3.56.54-.76.8-.39,1.85.82,2.35Z"/>
          </g>
        </g>
        <g>
          <path class="cls-4" d="M485.93,939.2c1.26,3.58,2.3,7.18,3.07,10.8H-135.24c-.39-1.88-.74-3.76-1.1-5.64-.39-1.98-.74-3.94-1.07-5.92-.32-1.84-.61-3.7-.87-5.56-.49-3.04-.91-6.08-1.26-9.12-.07-.5-.13-.98-.19-1.48-.32-2.76-.61-5.5-.87-8.24-.26-2.74-.49-5.48-.71-8.24-.16-1.82-.29-3.64-.39-5.48-.55-8.96-.87-17.91-.84-26.89,0-1.68.03-3.38.06-5.06.03-2.04.1-4.1.16-6.16.03-.54.06-1.08.1-1.62.07-1.88.16-3.76.29-5.64.16-2.38.32-4.74.52-7.12.1-1.42.23-2.82.39-4.24.13-1.42.29-2.84.45-4.24,0-.32.03-.64.1-.96.1-.82.19-1.66.32-2.48,0-.28.03-.54.1-.8.16-1.2.32-2.42.49-3.62.84-5.86,1.91-11.7,3.2-17.51.29-1.4.61-2.8.97-4.2,1.33-5.6,2.88-11.2,4.66-16.75.16-.5.32-1,.52-1.52.94-2.94,2.01-5.88,3.11-8.82,13.52-35.65,37.89-70.18,75.42-98.47,2.88-2.18,5.82-4.3,8.87-6.4l.71-2.78.52-1.94.29-1.14,2.62-10c12.81.68,25.66,1.5,38.41,2.56,1.46.12,2.88.24,4.3.38,34.85,3.02,69.24,7.82,101.73,16.01.52.12,1.04.26,1.55.4.39.08.74.18,1.13.28,12.62,3.26,24.91,7.08,36.69,11.46.55.2,1.07.4,1.62.6,26.4,9.98,49.96,22.77,67.53,38.31.32.28.65.54.94.82,2.65,2.4,5.18,4.84,7.54,7.36,5.11,5.44,9.48,11.1,13.2,16.91.23.34.45.66.65.98,8.09,12.9,13.3,26.51,17.12,40.17,0,0,0,.01,0,.02l3.25,1.87c41.88,3.31,80.01,13.87,113.03,29.26.45.2.91.4,1.36.64,19.58,9.2,37.31,20.09,52.9,32.19.39.3.81.62,1.16.92,7.77,6.08,14.98,12.44,21.61,19.01.32.3.61.6.91.9,1.68,1.66,3.3,3.34,4.89,5.04,8.87,9.44,16.66,19.33,22.81,29.57.23.36.45.72.65,1.1v.02c3.69,6.2,6.76,12.52,9.12,18.95.19.5.36,1,.52,1.48Z"/>
          <path class="cls-5" d="M256.27,945.86c.42,1.38.84,2.76,1.23,4.14H-135.24c-.39-1.88-.74-3.76-1.1-5.64-.39-1.98-.74-3.94-1.07-5.92-.32-1.84-.61-3.7-.87-5.56-.49-3.04-.91-6.08-1.26-9.12-.07-.5-.13-.98-.19-1.48-.32-2.76-.61-5.5-.87-8.24-.26-2.74-.49-5.48-.71-8.24-.16-1.82-.29-3.64-.39-5.48-.55-8.96-.87-17.91-.84-26.89,0-1.68.03-3.38.06-5.06.03-2.04.1-4.1.16-6.16.03-.54.06-1.08.1-1.62.07-1.88.16-3.76.29-5.64.16-2.38.32-4.74.52-7.12.1-1.42.23-2.82.39-4.24.13-1.42.29-2.84.45-4.24,0-.32.03-.64.1-.96.1-.82.19-1.66.32-2.48,0-.28.03-.54.1-.8.16-1.2.32-2.42.49-3.62.84-5.86,1.91-11.7,3.2-17.51.29-1.4.61-2.8.97-4.2,1.33-5.6,2.88-11.2,4.66-16.75.16-.5.32-1,.52-1.52.94-2.94,2.01-5.88,3.11-8.82,13.52-35.65,37.89-70.18,75.42-98.47,29.25,7.7,57.08,17.43,83.06,28.87,5.89,2.56,11.68,5.22,17.38,7.98.45.2.87.42,1.33.66,4.95,2.36,9.8,4.82,14.59,7.38.45.2.91.44,1.33.68,19.09,10.08,36.98,21.09,53.48,32.83.39.26.78.54,1.13.8,15.37,11,29.57,22.63,42.42,34.77.36.3.68.6.97.92,2.72,2.54,5.34,5.12,7.93,7.72,7.73,7.82,14.98,15.77,21.71,23.91.29.32.58.66.81,1,28.99,35.11,48.86,72.97,61.12,111.84v.02c.26.74.52,1.48.71,2.24Z"/>
        </g>
        <g class="cls-17">
          <path class="cls-16" d="M-6.4,666.64c-11.81,2.02-23.55,4.2-35.2,6.5l.29-1.14c11.42-2.24,22.91-4.36,34.46-6.34,2.17-.38,4.37-.74,6.57-1.1,1.46.12,2.88.24,4.3.38-3.49.54-6.96,1.12-10.42,1.7Z"/>
          <path class="cls-16" d="M-130.74,793.05c.16-.5.32-1,.52-1.52,38.18-17.35,76.55-31.89,110.79-44.16l6.92-2.46c20.84-7.46,42.03-15.01,61.25-23.81,20.77-9.46,39.22-20.37,52.35-34.07,1.55-1.62,3.36-3.76,4.66-6.08.52.12,1.04.26,1.55.4-1.39,2.38-3.2,4.54-4.79,6.2-13.23,13.78-31.68,24.73-52.45,34.21-19.38,8.9-40.7,16.53-61.73,24.03l-6.92,2.48c-34.65,12.42-73.54,27.15-112.15,44.78Z"/>
          <path class="cls-16" d="M-142.33,862.23c.03-.54.06-1.08.1-1.62h0c64.56-45.77,130.73-92.64,206.87-131.47,25.59-13.06,52.32-25.19,80.47-36.05.55.2,1.07.4,1.62.6-28.28,10.9-55.1,23.05-80.76,36.13-76.13,38.79-142.27,85.63-206.82,131.37-.49.34-.97.68-1.49,1.04Z"/>
          <path class="cls-16" d="M474.47,950h-2.04c4.69-4.02,8.99-8.14,12.97-12.28.19.5.36,1,.52,1.48-3.56,3.64-7.38,7.26-11.45,10.8Z"/>
          <path class="cls-16" d="M325.77,903c-14.11,13.9-21.42,30.51-21.23,47h-1.65c-.16-16.69,7.22-33.49,21.48-47.54,20.32-20.03,54.84-34.77,92.38-39.39,2.46-.3,4.98-.58,7.51-.86.39.3.81.62,1.16.92-2.85.3-5.63.6-8.35.94-37.08,4.58-71.21,19.13-91.31,38.93Z"/>
          <path class="cls-16" d="M-113.95,904.08c-8.51,6.46-17.12,13.02-25.59,19.69-.07-.5-.13-.98-.19-1.48,8.09-6.4,16.34-12.66,24.49-18.85,16.34-12.46,33.26-25.33,48.57-38.59,5.69-4.96,11.32-10.12,16.79-15.07,15.47-14.14,31.45-28.73,51.28-40.99,33.2-20.49,75.91-33.75,118.07-46.14,3.27-.96,6.54-1.9,9.8-2.86,28.73-8.4,58.18-16.99,85-27.79.32.28.65.54.94.82-26.92,10.86-56.43,19.49-85.23,27.89-3.14.92-6.24,1.82-9.38,2.74-42.16,12.38-84.9,25.61-118,46.06-19.74,12.18-35.69,26.75-51.12,40.83-5.44,4.98-11.07,10.14-16.83,15.11-15.3,13.3-32.23,26.17-48.6,38.63Z"/>
          <path class="cls-16" d="M43.85,925.95c-6.05,8-12.17,16.03-18.38,24.05h-1.84c6.34-8.16,12.55-16.35,18.73-24.49,7.31-9.66,14.88-19.65,22.49-29.35,20.58-26.31,45.56-55.22,77.2-81.59,6.67-5.58,13.65-11.06,20.97-16.35,21.39-15.51,45.52-29.63,72.93-41.13.23.34.45.66.65.98-27.31,11.48-51.32,25.57-72.61,41.07-7.38,5.36-14.43,10.9-21.16,16.53-31.32,26.17-56.07,54.84-76.49,80.93-7.6,9.72-15.17,19.69-22.49,29.35Z"/>
          <path class="cls-16" d="M256.27,945.86c-.65,1.36-1.29,2.74-1.91,4.14h-1.75c.94-2.14,1.94-4.28,2.94-6.38v-.02c24.3-50.68,62.67-89.01,114.44-114.22.45.2.91.4,1.36.64-52.29,25.39-90.92,64.28-115.09,115.84Z"/>
          <path class="cls-16" d="M127.62,892.92c-15.05,18.53-27.11,37.81-37.14,57.08h-1.78c10.1-19.43,22.26-38.85,37.44-57.54,9.87-12.2,22.62-25.89,38.67-39.63v-.02c8.61-7.42,18.22-14.84,28.83-22.05,17.25-11.74,37.18-22.89,60.08-32.53.01.03.02.07.03.1.2.61-.23,1.24-1.07,1.6-22.15,9.47-41.5,20.39-58.24,31.83-10.71,7.3-20.35,14.81-29.06,22.31-15.6,13.48-28.05,26.89-37.76,38.85Z"/>
          <path class="cls-16" d="M390.06,942.36c-2.56-.32-5.4-.8-7.57-1.96-1.84-.98-3.14-2.38-4.11-4.4-1-2.06-1.42-4.14-1.42-6.16,0-5.68,3.3-11.04,6.57-14.95,8.28-9.92,22.62-18.87,41.51-25.85,7.05-2.62,14.53-4.9,22-6.9.32.3.61.6.91.9-7.54,2-14.98,4.26-22.03,6.88-18.64,6.88-32.78,15.69-40.9,25.45-4.3,5.14-8.64,12.84-5.05,20.33.87,1.84,2.04,3.08,3.59,3.92,1.88,1,4.4,1.42,6.83,1.74,19.45,2.5,41.61-.96,60.86-9.46,9.32-4.12,17.41-9.12,24.4-14.25.23.36.45.72.65,1.1,0,0,.03.02,0,.02-6.92,5.04-14.88,9.9-24.07,13.98-19.61,8.66-42.29,12.18-62.16,9.62Z"/>
        </g>
        <path class="cls-3" d="M1905.63,455.13c5.12-1.11,10.26-2.03,15.44-2.72v551.5c-2.69.34-5.37.66-8.06.97-2.83.34-5.63.66-8.46.94-2.63.29-5.29.54-7.95.77-4.35.43-8.69.8-13.04,1.11-.71.06-1.4.11-2.12.17-3.94.29-7.86.54-11.78.77-3.92.23-7.83.43-11.78.63-2.6.14-5.2.26-7.83.34-12.81.49-25.61.77-38.45.74-2.4,0-4.83-.03-7.23-.06-2.92-.03-5.86-.09-8.8-.14-.77-.03-1.54-.06-2.32-.09-2.69-.06-5.37-.14-8.06-.26-3.4-.14-6.78-.29-10.18-.46-2.03-.09-4.03-.2-6.06-.34-2.03-.11-4.06-.26-6.06-.4-.46,0-.91-.03-1.37-.09-1.17-.09-2.37-.17-3.54-.29-.4,0-.77-.03-1.14-.09-1.71-.14-3.46-.29-5.17-.43-8.38-.74-16.72-1.69-25.04-2.83-2-.26-4-.54-6-.86-8-1.17-16.01-2.54-23.95-4.12-.71-.14-1.43-.29-2.17-.46-4.2-.83-8.4-1.77-12.61-2.74-50.97-11.95-100.34-33.47-140.78-66.63-3.12-2.54-6.15-5.15-9.15-7.83l-3.97-.63-2.77-.46-1.63-.26-14.29-2.32c.97-11.32,2.14-22.67,3.66-33.93.17-1.29.34-2.54.54-3.8,4.32-30.79,11.18-61.17,22.9-89.87.17-.46.37-.91.57-1.37.11-.34.26-.66.4-1,4.66-11.15,10.12-22.01,16.38-32.42.29-.49.57-.94.86-1.43,14.26-23.33,32.56-44.14,54.77-59.66.4-.29.77-.57,1.17-.83,3.43-2.34,6.92-4.57,10.52-6.66,7.78-4.52,15.86-8.38,24.18-11.66.49-.2.94-.4,1.4-.57,18.44-7.15,37.9-11.75,57.43-15.12.54-.11,1.06-.2,1.6-.29.26-.06.54-.09.8-.14,4.37-37.96,19.64-72.49,42.14-102.31.29-.4.57-.8.91-1.2,13.15-17.29,28.73-32.96,46.02-46.74.43-.34.89-.71,1.31-1.03,8.69-6.86,17.78-13.24,27.19-19.09.43-.29.86-.54,1.29-.8,2.37-1.49,4.77-2.92,7.2-4.32,13.49-7.83,27.64-14.72,42.28-20.15.51-.2,1.03-.4,1.57-.57h.03c8.86-3.26,17.89-5.97,27.1-8.06.71-.17,1.43-.31,2.12-.46Z"/>
        <path class="cls-8" d="M1915.15,658.03c1.97-.37,3.95-.74,5.92-1.09v346.97c-2.69.34-5.37.66-8.06.97-2.83.34-5.63.66-8.46.94-2.63.29-5.29.54-7.95.77-4.35.43-8.69.8-13.04,1.11-.71.06-1.4.11-2.12.17-3.94.29-7.86.54-11.78.77-3.92.23-7.83.43-11.78.63-2.6.14-5.2.26-7.83.34-12.81.49-25.61.77-38.45.74-2.4,0-4.83-.03-7.23-.06-2.92-.03-5.86-.09-8.8-.14-.77-.03-1.54-.06-2.32-.09-2.69-.06-5.37-.14-8.06-.26-3.4-.14-6.78-.29-10.18-.46-2.03-.09-4.03-.2-6.06-.34-2.03-.11-4.06-.26-6.06-.4-.46,0-.91-.03-1.37-.09-1.17-.09-2.37-.17-3.54-.29-.4,0-.77-.03-1.14-.09-1.71-.14-3.46-.29-5.17-.43-8.38-.74-16.72-1.69-25.04-2.83-2-.26-4-.54-6-.86-8-1.17-16.01-2.54-23.95-4.12-.71-.14-1.43-.29-2.17-.46-4.2-.83-8.4-1.77-12.61-2.74-50.97-11.95-100.34-33.47-140.78-66.63,11.01-25.84,24.93-50.42,41.28-73.38,3.66-5.2,7.46-10.32,11.41-15.35.29-.4.6-.77.94-1.17,3.37-4.37,6.89-8.66,10.55-12.89.29-.4.63-.8.97-1.17,14.41-16.87,30.16-32.67,46.94-47.25.37-.34.77-.69,1.14-1,15.72-13.58,32.36-26.13,49.71-37.48.43-.31.86-.6,1.31-.86,3.63-2.4,7.32-4.72,11.03-7,11.18-6.83,22.55-13.23,34.19-19.18.46-.26.94-.51,1.43-.71,50.2-25.61,104.34-43.16,159.91-54h.03c1.06-.23,2.12-.46,3.2-.63Z"/>
        <g class="cls-17">
          <path class="cls-16" d="M1515.92,890.09c2.89,10.43,6,20.81,9.29,31.1l-1.63-.26c-3.2-10.09-6.23-20.24-9.06-30.44-.54-1.92-1.06-3.86-1.57-5.8.17-1.29.34-2.54.54-3.8.77,3.09,1.6,6.15,2.43,9.2Z"/>
          <path class="cls-16" d="M1696.67,999.95c-.71-.14-1.43-.29-2.17-.46-24.81-33.73-45.59-67.63-63.15-97.88l-3.52-6.12c-10.66-18.41-21.47-37.13-34.05-54.11-13.52-18.35-29.13-34.65-48.71-46.25-2.32-1.37-5.37-2.97-8.69-4.12.17-.46.37-.91.57-1.37,3.4,1.23,6.49,2.83,8.86,4.23,19.7,11.69,35.36,27.99,48.91,46.34,12.72,17.12,23.64,35.96,34.36,54.54l3.54,6.12c17.75,30.62,38.82,64.98,64.03,99.08Z"/>
          <path class="cls-16" d="M1795.58,1010.18c-.77-.03-1.54-.06-2.32-.09-.06-.03-.09-.09-.14-.11-65.38-57-132.35-115.43-187.84-182.66-18.67-22.61-36.02-46.22-51.54-71.09.29-.49.57-.94.86-1.43,15.58,24.98,32.96,48.68,51.65,71.35,55.46,67.26,122.43,125.69,187.84,182.72.49.43.97.86,1.49,1.31Z"/>
          <path class="cls-16" d="M1921.07,465.25v1.8c-5.75-4.14-11.63-7.95-17.55-11.46.71-.17,1.43-.31,2.12-.46,5.2,3.14,10.38,6.52,15.44,10.12Z"/>
          <path class="cls-16" d="M1853.86,596.63c19.87,12.46,43.62,18.92,67.21,18.75v1.46c-23.87.14-47.88-6.37-67.98-18.98-28.64-17.95-49.71-48.45-56.31-81.61-.43-2.17-.83-4.4-1.23-6.63.43-.34.89-.71,1.31-1.03.43,2.52.86,4.97,1.34,7.38,6.55,32.76,27.36,62.92,55.66,80.67Z"/>
          <path class="cls-16" d="M1855.41,985.11c9.23,7.52,18.61,15.12,28.16,22.61-.71.06-1.4.11-2.12.17-9.15-7.15-18.09-14.44-26.96-21.64-17.81-14.44-36.22-29.39-55.17-42.91-7.09-5.03-14.46-10-21.55-14.84-20.21-13.66-41.08-27.79-58.6-45.31-29.3-29.33-48.25-67.06-65.98-104.31-1.37-2.89-2.72-5.77-4.09-8.66-12.01-25.38-24.3-51.4-39.73-75.09.4-.29.77-.57,1.17-.83,15.52,23.78,27.87,49.85,39.88,75.29,1.32,2.77,2.6,5.52,3.92,8.29,17.69,37.25,36.62,75.01,65.86,104.25,17.41,17.44,38.25,31.53,58.37,45.17,7.12,4.8,14.49,9.78,21.61,14.86,19.01,13.52,37.42,28.47,55.23,42.94Z"/>
          <path class="cls-16" d="M1886.68,845.7c11.43,5.35,22.93,10.75,34.39,16.24v1.63c-11.66-5.6-23.38-11.09-35.02-16.55-13.81-6.46-28.1-13.15-41.96-19.87-37.62-18.18-78.95-40.25-116.66-68.21-7.98-5.89-15.81-12.06-23.38-18.52-22.18-18.89-42.36-40.22-58.8-64.43.49-.2.94-.4,1.4-.57,16.41,24.13,36.56,45.34,58.71,64.15,7.66,6.52,15.58,12.75,23.64,18.69,37.42,27.67,78.41,49.54,115.71,67.58,13.89,6.72,28.16,13.41,41.96,19.87Z"/>
          <path class="cls-16" d="M1915.15,658.03c1.94.57,3.92,1.14,5.92,1.69v1.54c-3.06-.83-6.12-1.72-9.12-2.6h-.03c-72.46-21.47-127.26-55.37-163.31-101.11.29-.4.57-.8.91-1.2,36.3,46.19,91.9,80.33,165.63,101.68Z"/>
          <path class="cls-16" d="M1839.46,771.69c26.5,13.29,54.06,23.95,81.61,32.82v1.57c-27.79-8.92-55.54-19.67-82.27-33.07-17.44-8.72-37.02-19.98-56.66-34.16h-.03c-10.61-7.6-21.21-16.09-31.53-25.47-16.78-15.24-32.73-32.84-46.51-53.08.54-.11,1.06-.2,1.6-.29,13.72,20.07,29.64,37.56,46.34,52.65,10.43,9.46,21.18,17.98,31.9,25.67,19.27,13.78,38.45,24.78,55.54,33.36Z"/>
          <path class="cls-16" d="M1910.15,539.83c-.46,2.26-1.14,4.77-2.8,6.69-1.4,1.63-3.4,2.77-6.29,3.63-2.94.89-5.92,1.26-8.8,1.26-8.12,0-15.78-2.92-21.38-5.8-14.18-7.32-26.98-19.98-36.96-36.68-3.74-6.23-7-12.83-9.86-19.44.43-.29.86-.54,1.29-.8,2.86,6.66,6.09,13.24,9.83,19.47,9.83,16.47,22.44,28.96,36.39,36.13,7.35,3.8,18.35,7.63,29.07,4.46,2.63-.77,4.4-1.8,5.6-3.17,1.43-1.66,2.03-3.89,2.49-6.03,3.57-17.18-1.37-36.76-13.52-53.77-5.89-8.23-13.04-15.38-20.38-21.55.51-.2,1.03-.4,1.57-.57,0,0,.03-.03.03,0,7.2,6.12,14.15,13.15,19.98,21.27,12.38,17.32,17.41,37.36,13.75,54.91Z"/>
        </g>
        <rect class="cls-1" x=".07" y="88.11" width="1919.93" height="923.04"/>
        <rect class="cls-1" x=".07" y="88.11" width="1919.93" height="923.04"/>
        <g>
          <path class="cls-12" d="M1960.53,746v850.12H-40.47v-737.54c5.77-1.71,11.61-3.31,17.47-4.83,95.53-24.6,165.04,38.1,264,52.25,93.74,13.4,188.23-6.9,281.74-.96,110.59,7.02,216.86,40.38,324.87,62.43,234.59,47.89,480.82,26.64,702.17-65.51,1.4-.57,2.77-1.17,4.17-1.74,23.5-9.89,46.99-20.55,70.49-31.52,110.2-51.41,220.8-109.21,336.08-122.7Z"/>
          <path class="cls-18" d="M1960.53,746c0,283.37.01,566.75-.08,850.12.28-74.18-.45-342.28-.17-416.46.04-11.45-113.99-73.36-205.29-86.46-59.12-8.48-118.45,6.05-177.72,2.28-33.11-2.11-63.63-15.05-94.48-26.1-67.13-24.04-136.48-27.82-206.81-32.49-46.13-3.07-94.36.64-140-5.88-83.15-11.13-122.27-29-204.12-49.17,37.25,4.77,74.69,8.2,112.37,9.83,172.37,7.46,346.29-23.4,505.54-89.7,1.4-.57,2.77-1.17,4.17-1.74,23.5-9.89,46.99-20.55,70.49-31.52,110.2-51.41,220.8-109.21,336.08-122.7Z"/>
        </g>
        <circle class="cls-18" cx="329.5" cy="746.5" r="17.5"/>
        <path class="cls-3" d="M197.94,622.34l-5.6-2.67-.65,6.17c-.49,4.64-6.93,5.41-8.49,1.01l-2.07-5.85-4.82,3.91c-3.63,2.94-8.72-1.08-6.71-5.29l2.67-5.6-6.17-.65c-4.64-.49-5.41-6.93-1.01-8.49l5.85-2.07-3.91-4.82c-2.94-3.63,1.08-8.72,5.29-6.71l5.6,2.67.65-6.17c.49-4.64,6.93-5.41,8.49-1.01l2.07,5.85,4.82-3.91c3.63-2.94,8.72,1.08,6.71,5.29l-2.67,5.6,6.17.65c4.64.49,5.41,6.93,1.01,8.49l-5.85,2.07,3.91,4.82c2.94,3.63-1.08,8.72-5.29,6.71Z"/>
        <path class="cls-18" d="M1548.01,707.38l-14.24-6.34-2.48,15.87c-.72,4.62-7.21,5.05-8.53.56l-4.05-13.75-11.2,9.53c-3.64,3.1-8.91-1.05-6.75-5.32l6.65-13.12-14.32-.73c-4.67-.24-5.77-6.64-1.45-8.42l14.85-6.12-9.5-12.36c-2.77-3.6,1.11-8.52,5.26-6.67l14.24,6.34,2.48-15.87c.72-4.62,7.21-5.05,8.53-.56l4.05,13.75,11.2-9.53c3.64-3.1,8.91,1.05,6.75,5.32l-6.65,13.12,14.32.73c4.67.24,5.77,6.64,1.45,8.42l-14.85,6.12,9.5,12.36c2.77,3.6-1.11,8.52-5.26,6.67Z"/>
        <path class="cls-4" d="M1620.76,619.22c1.45,4.57-13.93,7.73-16.87,8.68-.81,4.11-.36,8.54-1.77,12.55-4.91,13.94-12.4-5.97-12.76-11.91-3.3-.64-19.12-2.3-18.67-7.12.47-5.15,13.12-6.38,16.88-7.99.66-23.32,10.43-22.32,14.54-.63,4.13.84,17.19,1.8,18.65,6.41Z"/>
      </g>
    </g>
  </g>
</svg>