<?xml version="1.0" encoding="UTF-8"?>
<svg id="Layer_1" data-name="Layer 1" xmlns="http://www.w3.org/2000/svg" viewBox="0 0 150 150">
  <defs>
    <style>
      .cls-1 {
        fill: #ea9d00;
      }
    </style>
  </defs>
  <path class="cls-1" d="M102.04,135.05l-24.26-28.23-22.19,32.65c-2.63,3.87-8.67,1.48-7.95-3.14l5.66-36.18-37.39,10.07c-4.62,1.24-7.6-4.76-3.83-7.69l30.59-23.75L10.4,61.48c-4.12-2.21-2.38-8.47,2.29-8.23l39.42,2-7.88-36.38c-.96-4.44,4.64-7.23,7.6-3.78l24.26,28.23,22.19-32.65c2.63-3.87,8.67-1.48,7.95,3.14l-5.66,36.18,37.39-10.07c4.62-1.24,7.6,4.76,3.83,7.69l-30.59,23.75,32.27,17.31c4.12,2.21,2.38,8.47-2.29,8.23l-39.42-2,7.88,36.38c.96,4.44-4.64,7.23-7.6,3.78Z"/>
</svg>