<?xml version="1.0" encoding="UTF-8"?>
<svg id="Layer_1" data-name="Layer 1" xmlns="http://www.w3.org/2000/svg" viewBox="0 0 150 150">
  <defs>
    <style>
      .cls-1 {
        fill: #d93c0f;
      }
    </style>
  </defs>
  <path class="cls-1" d="M109.33,117.31l-15.22-7.26-1.75,16.77c-1.32,12.62-18.84,14.7-23.07,2.73l-5.63-15.9-13.1,10.62c-9.86,7.99-23.71-2.93-18.25-14.38l7.26-15.22-16.77-1.75c-12.62-1.32-14.7-18.84-2.73-23.07l15.9-5.63-10.62-13.1c-7.99-9.86,2.93-23.71,14.38-18.25l15.22,7.26,1.75-16.77c1.32-12.62,18.84-14.7,23.07-2.73l5.63,15.9,13.1-10.62c9.86-7.99,23.71,2.93,18.25,14.38l-7.26,15.22,16.77,1.75c12.62,1.32,14.7,18.84,2.73,23.07l-15.9,5.63,10.62,13.1c7.99,9.86-2.93,23.71-14.38,18.25Z"/>
</svg>